<?xml version="1.0" encoding="UTF-8"?>
<!DOCTYPE svg PUBLIC "-//W3C//DTD SVG 1.1//EN" "http://www.w3.org/Graphics/SVG/1.1/DTD/svg11.dtd">
<!-- Creator: CorelDRAW 2019 (64-Bit) -->
<svg xmlns="http://www.w3.org/2000/svg" xml:space="preserve" width="512px" height="512px" version="1.1" style="shape-rendering:geometricPrecision; text-rendering:geometricPrecision; image-rendering:optimizeQuality; fill-rule:evenodd; clip-rule:evenodd"
viewBox="0 0 511.7 511.7"
 xmlns:xlink="http://www.w3.org/1999/xlink"
 xmlns:xodm="http://www.corel.com/coreldraw/odm/2003">
 <defs>
  <style type="text/css">
   <![CDATA[
    .fil0 {fill:none}
    .fil2 {fill:#297FC2}
    .fil1 {fill:url(#id0)}
   ]]>
  </style>
  <radialGradient id="id0" gradientUnits="userSpaceOnUse" gradientTransform="matrix(0.00207585 -0.568402 1.35087 0.0127401 -74 386)" cx="255.85" cy="243.88" r="232.83" fx="255.85" fy="243.88">
   <stop offset="0" style="stop-opacity:1; stop-color:#297FC2"/>
   <stop offset="1" style="stop-opacity:1; stop-color:#69A5D4"/>
  </radialGradient>
 </defs>
 <g id="BG">
  <metadata id="CorelCorpID_0Corel-Layer"/>
  <rect class="fil0" width="511.7" height="511.7"/>
 </g>
 <g id="Waves">
  <metadata id="CorelCorpID_1Corel-Layer"/>
  <path class="fil1" d="M428.32 142.7c-3.99,-3.24 -4.59,-9.09 -1.35,-13.07 3.24,-3.99 9.09,-4.59 13.08,-1.35 16.01,13.03 27.68,30.43 35.56,49.33 8.98,21.55 13.07,45.11 13.07,66.27 0,21.16 -4.09,44.72 -13.07,66.27 -7.88,18.91 -19.55,36.31 -35.56,49.34 -3.99,3.24 -9.84,2.64 -13.08,-1.35 -3.24,-3.98 -2.64,-9.84 1.35,-13.07 13.42,-10.92 23.32,-25.79 30.1,-42.06 7.97,-19.14 11.6,-40.17 11.6,-59.13 0,-18.95 -3.63,-39.98 -11.6,-59.12 -6.78,-16.27 -16.68,-31.14 -30.1,-42.06zm-356.67 -14.42c3.98,-3.24 9.84,-2.64 13.08,1.35 3.24,3.98 2.63,9.83 -1.35,13.07 -13.43,10.92 -23.32,25.79 -30.1,42.06 -7.98,19.14 -11.61,40.17 -11.61,59.12 0,18.96 3.63,39.99 11.61,59.13 6.78,16.27 16.67,31.14 30.1,42.06 3.98,3.23 4.59,9.09 1.35,13.07 -3.24,3.99 -9.1,4.59 -13.08,1.35 -16.02,-13.03 -27.69,-30.43 -35.56,-49.34 -8.98,-21.55 -13.07,-45.11 -13.07,-66.27 0,-21.16 4.09,-44.72 13.07,-66.27 7.87,-18.9 19.54,-36.3 35.56,-49.33zm330.88 196.53c-3.82,3.44 -9.71,3.13 -13.15,-0.69 -3.44,-3.82 -3.13,-9.71 0.69,-13.15 9.74,-8.75 17.23,-18.04 22.22,-28.77 5,-10.74 7.61,-23.19 7.61,-38.32 0,-15.12 -2.61,-27.57 -7.61,-38.31 -4.99,-10.73 -12.48,-20.02 -22.22,-28.77 -3.82,-3.44 -4.13,-9.33 -0.69,-13.15 3.44,-3.82 9.33,-4.13 13.15,-0.69 11.53,10.37 20.5,21.58 26.66,34.81 6.15,13.22 9.37,28.22 9.37,46.11 0,17.9 -3.22,32.9 -9.37,46.12 -6.16,13.23 -15.13,24.44 -26.66,34.81zm-280.91 -13.84c3.83,3.44 4.14,9.33 0.7,13.15 -3.44,3.82 -9.33,4.13 -13.15,0.69 -11.53,-10.37 -20.51,-21.58 -26.66,-34.81 -6.15,-13.22 -9.37,-28.22 -9.37,-46.12 0,-17.89 3.22,-32.89 9.37,-46.11 6.15,-13.23 15.13,-24.44 26.66,-34.81 3.82,-3.44 9.71,-3.13 13.15,0.69 3.44,3.82 3.13,9.71 -0.7,13.15 -9.73,8.75 -17.22,18.04 -22.21,28.77 -5,10.74 -7.62,23.19 -7.62,38.31 0,15.13 2.62,27.58 7.62,38.32 4.99,10.73 12.48,20.02 22.21,28.77zm230.86 -96.87c-3.5,-3.76 -3.29,-9.65 0.47,-13.15 3.77,-3.5 9.65,-3.29 13.15,0.47 5.44,5.84 9.55,12.39 12.32,19.54 2.79,7.21 4.19,14.9 4.19,22.92 0,8.03 -1.4,15.72 -4.19,22.93 -2.77,7.14 -6.88,13.7 -12.32,19.54 -3.5,3.76 -9.38,3.97 -13.15,0.47 -3.76,-3.5 -3.97,-9.39 -0.47,-13.15 3.84,-4.11 6.7,-8.66 8.6,-13.56 1.92,-4.95 2.88,-10.39 2.88,-16.23 0,-5.83 -0.96,-11.27 -2.88,-16.22 -1.9,-4.9 -4.76,-9.45 -8.6,-13.56zm-206.89 -12.68c3.5,-3.76 9.39,-3.97 13.15,-0.47 3.76,3.5 3.97,9.39 0.47,13.15 -3.83,4.11 -6.7,8.66 -8.59,13.56 -1.92,4.95 -2.88,10.39 -2.88,16.22 0,5.84 0.96,11.28 2.88,16.23 1.89,4.9 4.76,9.45 8.59,13.56 3.5,3.76 3.29,9.65 -0.47,13.15 -3.76,3.5 -9.65,3.29 -13.15,-0.47 -5.44,-5.84 -9.55,-12.4 -12.31,-19.54 -2.79,-7.21 -4.19,-14.9 -4.19,-22.93 0,-8.02 1.4,-15.71 4.19,-22.92 2.76,-7.15 6.87,-13.7 12.31,-19.54z"/>
 </g>
 <g id="PC">
  <metadata id="CorelCorpID_2Corel-Layer"/>
  <path class="fil2" d="M236.91 347.62l37.88 0 0 37.88 -37.88 0 0 -37.88zm-65.44 26.52l53.04 0 0 -15.15 -53.04 0 0 15.15zm98.17 -71.1l0 34.72 -27.58 0 0 -34.72 -31.82 0c-6.42,0 -12.25,-2.62 -16.47,-6.84 -4.22,-4.22 -6.84,-10.06 -6.84,-16.47l0 -71.69c0,-6.39 2.63,-12.21 6.86,-16.45l-0.02 -0.02c4.22,-4.22 10.05,-6.84 16.47,-6.84l91.21 0c6.38,0 12.2,2.62 16.44,6.84l0.03 0.04c4.22,4.23 6.85,10.05 6.85,16.43l0 71.69c0,6.41 -2.63,12.25 -6.85,16.47l-0.01 -0.02c-4.24,4.23 -10.07,6.86 -16.46,6.86l-31.81 0zm31.81 -99.66l-91.21 0c-1.27,0 -2.43,0.53 -3.28,1.38l-0.04 0c-0.82,0.82 -1.34,1.99 -1.34,3.28l0 71.69c0,1.27 0.53,2.43 1.38,3.28 0.85,0.85 2.01,1.38 3.28,1.38l91.21 0c1.3,0 2.46,-0.52 3.29,-1.34l0 -0.04c0.85,-0.85 1.37,-2.01 1.37,-3.28l0 -71.69c0,-1.29 -0.51,-2.46 -1.34,-3.28l-0.03 -0.04c-0.83,-0.83 -1.99,-1.34 -3.29,-1.34zm-15.15 170.76l53.04 0 0 -15.15 -53.04 0 0 15.15z"/>
 </g>
</svg>
